<svg width="296" height="296" version="1.1" xmlns="http://www.w3.org/2000/svg" xmlns:xlink="http://www.w3.org/1999/xlink"><path d="M146.52 111.01L146.52 111.01L149.78 158.37Q150.37 190.33 150.07 195.07L150.07 195.07Q147.70 227.04 127.28 239.47L127.28 239.47L122.84 239.47Q118.70 233.85 102.71 217.57L102.71 217.57Q96.50 211.05 92.94 206.61L92.94 206.61L121.36 210.17L122.84 210.17Q138.82 196.85 133.20 125.51L133.20 125.51Q132.61 118.70 132.02 112.49L132.02 112.49Q95.31 115.15 70.15 119.89L70.15 119.89L42.33 126.69Q42.03 126.69 41.44 126.69L41.44 126.69Q33.15 127.88 24.57 123.73L24.57 123.73Q18.35 120.77 15.10 116.04L15.10 116.04Q15.10 111.30 17.46 110.71L17.46 110.71Q18.94 110.41 53.87 109.23L53.87 109.23Q89.39 106.57 130.24 101.83L130.24 101.83Q128.17 78.15 122.54 69.57L122.54 69.57Q119.29 65.13 118.99 63.35L118.99 63.35Q125.50 61.87 137.34 68.68L137.34 68.68Q166.06 40.85 177.01 27.53L177.01 27.53Q176.71 23.09 163.98 25.46L163.98 25.46Q124.62 32.86 121.36 33.75L121.36 33.75Q99.46 39.08 85.25 47.96L85.25 47.96Q75.48 47.96 64.53 35.23L64.53 35.23Q64.23 34.64 63.64 34.05L63.64 34.05Q63.64 29.61 65.12 28.42L65.12 28.42Q93.24 32.57 141.19 22.21L141.19 22.21Q145.63 21.32 151.55 20.13L151.55 20.13L175.53 14.51Q178.19 13.92 180.86 13.92L180.86 13.92Q187.07 13.62 196.54 25.76L196.54 25.76Q202.46 33.16 202.46 37.30L202.46 37.30Q199.50 41.15 189.74 43.81L189.74 43.81L185 45.59Q176.12 49.14 155.70 63.94L155.70 63.94L142.08 72.82L144.74 97.39L145.34 100.35L201.87 95.02Q203.65 94.73 219.34 90.88L219.34 90.88Q222.89 89.99 225.55 89.69L225.55 89.69Q232.06 89.10 246.27 97.69L246.27 97.69Q260.48 106.57 256.04 110.71L256.04 110.71Q253.97 112.49 250.71 112.49L250.71 112.49Q250.42 112.49 241.83 111.60L241.83 111.60Q197.43 106.86 163.69 109.23L163.69 109.23Q154.81 109.82 146.52 111.01Z" stroke="#000" fill="black" /></svg>