<svg width="296" height="296" version="1.1" xmlns="http://www.w3.org/2000/svg" xmlns:xlink="http://www.w3.org/1999/xlink"><path d="M241.24 58.72L241.24 58.72Q241.24 62.57 237.69 64.05L237.69 64.05Q236.80 64.35 227.33 66.12L227.33 66.12L225.26 66.72L200.69 74.41Q195.36 75.60 190.62 75.60L190.62 75.60Q180.86 75.60 175.82 72.93L175.82 72.93Q173.16 71.16 172.57 71.16L172.57 71.16Q160.73 85.66 159.25 87.14L159.25 87.14Q152.44 93.95 145.04 95.72L145.04 95.72Q146.52 90.40 155.10 78.26L155.10 78.26Q158.66 73.52 160.14 70.27L160.14 70.27Q172.86 44.81 169.31 27.35L169.31 27.35Q169.02 26.16 168.42 24.68L168.42 24.68Q169.02 16.99 184.70 23.50L184.70 23.50Q188.55 25.28 190.62 26.46L190.62 26.46Q192.40 28.24 192.40 32.08L192.40 32.08Q179.38 58.72 175.23 66.12L175.23 66.12Q190.62 65.53 210.46 57.84L210.46 57.84Q232.36 49.84 240.35 57.54L240.35 57.54Q240.94 58.13 241.24 58.72ZM133.79 54.58L133.79 54.58Q132.61 61.68 129.06 62.87L129.06 62.87Q122.25 62.57 111.89 50.44L111.89 50.44Q102.42 39.19 104.49 33.56L104.49 33.56Q117.22 33.56 127.28 43.04L127.28 43.04Q132.61 48.36 133.79 54.58ZM252.78 153.44L256.34 157.00Q256.34 160.25 252.49 160.84L252.49 160.84Q250.42 161.44 236.21 161.44L236.21 161.44L233.84 161.44Q221.11 161.73 196.25 163.51L196.25 163.51Q201.87 216.49 195.95 239.28L195.95 239.28Q194.18 245.50 191.81 250.53L191.81 250.53Q186.78 259.12 183.52 259.71Q180.26 260.30 176.42 257.04L176.42 257.04L175.23 255.86Q159.84 239.28 146.52 230.11L146.52 230.11L146.52 229.22L176.71 231.59L177.01 231.59Q187.37 216.79 183.22 175.05L183.22 175.05L182.04 165.58Q179.67 165.58 160.14 169.72L160.14 169.72Q137.34 174.76 130.83 164.40L130.83 164.40L132.31 162.92L179.38 156.40L180.26 155.52L171.68 131.84L173.46 130.36Q176.42 130.65 182.04 134.80L182.04 134.80L203.94 106.38Q203.94 102.83 201.28 101.64L201.28 101.64Q190.92 103.42 168.13 113.78L168.13 113.78Q164.87 115.26 162.50 116.44L162.50 116.44Q145.04 116.44 144.15 107.86L144.15 107.86L144.74 106.38Q145.34 106.08 158.95 104.60L158.95 104.60Q160.14 104.31 161.02 104.31L161.02 104.31Q168.13 103.42 190.33 95.43L190.33 95.43Q200.69 91.88 208.09 90.69L208.09 90.69Q221.70 94.54 228.51 104.01L228.51 104.01Q228.51 106.97 222.89 109.64L222.89 109.64Q220.22 110.82 219.34 111.41L219.34 111.41Q211.05 116.74 185.30 137.76L185.30 137.76Q189.74 143.68 193.29 153.15L193.29 153.15Q197.73 153.15 219.34 149.00L219.34 149.00Q242.42 144.56 252.78 153.44L252.78 153.44ZM73.11 67.01L73.11 67.01Q71.63 69.97 64.82 69.97L64.82 69.97Q52.10 60.80 42.92 48.36L42.92 48.36Q41.14 46.59 41.14 42.15L41.14 42.15Q42.92 41.56 48.84 41.56L48.84 41.56L67.19 47.77Q72.82 52.80 73.11 67.01ZM145.63 82.40L145.63 82.40Q145.63 86.55 142.38 87.44L142.38 87.44L107.45 99.28L113.96 103.42Q114.85 104.60 115.44 105.79L115.44 105.79Q114.85 107.27 111 116.44L111 116.44L130.83 121.77Q140.60 125.92 142.38 133.32L142.38 133.32Q142.38 133.91 142.38 134.80L142.38 134.80Q134.68 140.72 129.06 167.36L129.06 167.36Q122.54 197.55 118.10 206.43L118.10 206.43Q112.48 217.97 103.60 220.93L103.60 220.93Q101.23 221.82 98.27 221.82L98.27 221.82Q95.90 220.04 92.65 212.05L92.65 212.05Q91.76 209.98 91.17 208.50L91.17 208.50L81.99 197.84L81.40 196.66Q82.88 196.07 95.90 199.62L95.90 199.62Q99.75 200.51 101.53 200.51L101.53 200.51Q108.93 196.96 112.18 184.52L112.18 184.52Q110.11 191.92 113.07 181.27L113.07 181.27Q120.77 154.92 121.66 149.30L121.66 149.30Q123.43 139.24 122.25 130.65L122.25 130.65Q120.18 128.58 109.82 124.44L109.82 124.44Q109.22 124.14 108.34 123.84L108.34 123.84Q89.39 163.21 69.26 185.12L69.26 185.12Q56.54 199.03 47.06 199.32L47.06 199.32L47.06 198.44Q78.14 163.21 90.87 133.61L90.87 133.61Q99.16 114.37 95.61 103.42L95.61 103.42L77.85 105.79Q69.26 105.79 63.94 101.05L63.94 101.05Q64.23 99.57 68.38 97.50L68.38 97.50Q104.49 87.73 124.62 79.44L124.62 79.44Q128.46 77.67 133.20 77.67L133.20 77.67Q141.19 77.67 145.63 82.40ZM30.19 110.82L17.76 95.13Q17.76 90.10 18.94 89.80L18.94 89.80Q26.64 88.62 38.18 96.91L38.18 96.91Q46.18 102.83 46.77 108.16L46.77 108.16Q47.06 110.82 45.88 114.08L45.88 114.08Q44.70 116.44 43.51 117.33L43.51 117.33Q38.78 119.70 32.26 113.48L32.26 113.48Q31.08 112.30 30.19 110.82L30.19 110.82ZM62.75 130.06L62.75 130.06Q64.53 131.84 61.27 139.83L61.27 139.83L42.03 193.70Q41.74 194.29 36.41 216.49L36.41 216.49Q35.52 219.45 35.22 220.04L35.22 220.04Q34.34 221.82 30.49 220.64L30.49 220.64Q22.20 215.60 17.46 202.58L17.46 202.58Q15.98 198.14 15.98 194.59L15.98 194.59Q15.98 192.22 22.50 187.19L22.50 187.19Q25.46 184.82 26.34 183.64L26.34 183.64Q27.53 181.86 44.70 153.74L44.70 153.74Q56.24 135.39 62.75 130.06Z" stroke="#000" fill="black" /></svg>