<?xml version="1.0" encoding="UTF-8" standalone="no"?>
        <svg 
    viewBox="3.1494140625 -86.0595703125 444.287109375 56.9091796875"
    width="441.1376953125"
    height="142.96875"
   xmlns="http://www.w3.org/2000/svg"
   xmlns:svg="http://www.w3.org/2000/svg">
   <path d="M11.28-33.03L11.28-33.03Q12.96-33.03 13.73-33.40Q14.50-33.76 15.75-36.04L15.75-36.04Q16.70-37.57 17.50-39.04Q18.31-40.50 19.63-43.40Q20.95-46.29 23.33-51.93Q25.71-57.57 29.81-67.31Q33.91-77.05 40.36-92.43L40.36-92.43L42.63-91.92Q41.16-86.13 39.37-78.52Q37.57-70.90 35.82-63.28Q34.06-55.66 32.74-49.58Q31.42-43.51 30.91-40.80L30.91-40.80Q30.25-37.28 29.77-33.62Q29.30-29.96 29.37-27.17L29.37-27.17Q29.52-22.85 31.27-19.19Q33.03-15.53 34.61-10.91Q36.18-6.30 35.82 0.73L35.82 0.73Q35.60 6.74 31.75 10.33Q27.91 13.92 22.19 13.92L22.19 13.92Q19.63 13.92 16.99 12.16Q14.36 10.40 13.33 6.01L13.33 6.01Q14.87-2.05 15.20-9.30Q15.53-16.55 14.76-21.53Q13.99-26.51 12.30-27.76L12.30-27.76Q9.59-29.88 4.61-30.32L4.61-30.32L4.61-33.03Q4.61-33.03 5.93-33.03Q7.25-33.03 8.83-33.03Q10.40-33.03 11.28-33.03ZM9.89-126.27L11.13-127.08Q21.83-125.39 27.91-121.98Q33.98-118.58 36.29-114.51Q38.60-110.45 38.05-106.75Q37.50-103.05 34.86-100.60Q32.23-98.14 28.34-97.96Q24.46-97.78 20.21-100.93L20.21-100.93Q19.26-107.67 16.15-114.44Q13.04-121.22 9.89-126.27L9.89-126.27ZM3.15-94.04L4.47-94.78Q14.50-92.87 20.07-89.43Q25.63-85.99 27.61-82.03Q29.59-78.08 28.82-74.52Q28.05-70.97 25.42-68.74Q22.78-66.50 19.04-66.50Q15.31-66.50 11.43-69.73L11.43-69.73Q11.21-76.17 8.75-82.76Q6.30-89.36 3.15-94.04L3.15-94.04ZM97.34-128.39L97.34-128.39L122.97-120.12Q122.53-119.02 121.40-118.43Q120.26-117.85 118.07-118.07L118.07-118.07Q114.33-110.16 108.03-101.07L108.03-101.07L120.48-101.07L130.37-114.92Q130.37-114.92 132.20-113.38Q134.03-111.84 136.85-109.46Q139.67-107.08 142.71-104.37Q145.75-101.66 148.17-99.32L148.17-99.32Q147.73-96.90 143.99-96.90L143.99-96.90L105.03-96.90Q100.93-91.48 96.31-86.35Q91.70-81.23 87.01-76.98L87.01-76.98L98.07-67.38Q97.19-66.43 95.73-65.70Q94.26-64.97 91.77-64.53L91.77-64.53L91.48-41.97L106.35-41.97L106.35-64.01L114.62-63.28Q116.16-66.80 117.85-70.97Q119.53-75.15 120.92-78.59L120.92-78.59L95.73-78.59L94.34-82.76L120.92-82.76L130.22-91.77L145.97-77.71Q144.51-76.10 140.11-75.88L140.11-75.88Q136.08-73.17 130.37-69.54Q124.66-65.92 119.38-62.99L119.38-62.99L130.81-61.96Q130.37-58.67 125.68-58.08L125.68-58.08L125.68-41.97L127.51-41.97L135.28-54.79Q135.28-54.79 137.73-52.33Q140.19-49.88 143.44-46.47Q146.70-43.07 149.12-40.21L149.12-40.21Q148.46-37.79 145.02-37.79L145.02-37.79L125.68-37.79L125.68-7.32Q125.68-0.73 124.26 3.81Q122.83 8.35 118.14 10.99Q113.45 13.62 103.78 14.58L103.78 14.58Q103.71 9.96 103.27 6.56Q102.83 3.15 101.73 0.88L101.73 0.88Q100.56-1.25 98.66-2.71Q96.75-4.17 92.72-4.98L92.72-4.98L92.72-7.03Q92.72-7.03 95.14-6.88Q97.56-6.74 100.31-6.59Q103.05-6.45 104.08-6.45L104.08-6.45Q106.35-6.45 106.35-8.28L106.35-8.28L106.35-37.79L91.33-37.79Q90.97-22.41 90.12-13.37Q89.28-4.32 87.56 0.55Q85.84 5.42 82.98 8.13L82.98 8.13Q76.46 14.43 65.11 14.43L65.11 14.43Q65.11 9.89 64.75 6.74Q64.38 3.59 63.13 1.83L63.13 1.83Q60.64-1.98 54.27-3.88L54.27-3.88L54.27-5.86Q56.69-5.64 59.91-5.53Q63.13-5.42 64.97-5.42L64.97-5.42Q67.82-5.42 69.14-6.74L69.14-6.74Q70.90-8.50 71.81-14.87Q72.73-21.24 73.17-34.02Q73.61-46.80 73.83-67.68L73.83-67.68L68.26-67.68Q67.82-58.23 66.36-47.42Q64.89-36.62 61.38-25.67Q57.86-14.72 51.53-4.58Q45.19 5.57 35.08 13.77L35.08 13.77L33.76 12.60Q39.40 1.61 42.66-10.33Q45.92-22.27 47.50-34.35Q49.07-46.44 49.51-57.82Q49.95-69.21 49.95-79.03L49.95-79.03L49.95-96.31L38.67-96.31L37.50-100.49L54.27-100.49L54.27-128.39L78.88-126.42Q78.81-124.88 77.67-123.78Q76.54-122.68 73.54-122.24L73.54-122.24L73.54-100.49L75-100.49L82.76-113.23L92.29-103.49Q94.04-110.38 95.36-116.86Q96.68-123.34 97.34-128.39ZM68.41-71.85L72.14-71.85L81.74-81.45L84.30-79.32Q85.84-83.20 87.38-87.49Q88.92-91.77 90.31-96.31L90.31-96.31L68.41-96.31L68.41-79.03L68.41-71.85ZM172.05-108.91L170.73-113.09L252.76-113.09L265.06-124.80L285.13-107.37Q283.67-105.54 278.98-105.18L278.98-105.18Q270.56-99.98 260.12-94.30Q249.68-88.62 239.28-84.01L239.28-84.01L241.77-83.86Q241.41-80.64 236.72-79.83L236.72-79.83L236.72-59.55L260.67-59.55L272.97-75.15Q272.97-75.15 275.21-73.46Q277.44-71.78 280.92-69.10Q284.40-66.43 288.21-63.43Q292.02-60.42 295.17-57.71L295.17-57.71Q294.58-55.37 290.70-55.37L290.70-55.37L236.72-55.37L236.72-11.13Q236.72-3.66 234.63 1.57Q232.54 6.81 226.03 9.96Q219.51 13.11 206.25 14.28L206.25 14.28Q205.59 8.72 204.49 4.91Q203.39 1.10 200.54-1.46L200.54-1.46Q197.83-4.10 194.02-5.97Q190.21-7.84 182.08-9.30L182.08-9.30L182.08-11.13Q182.08-11.13 184.53-10.99Q186.99-10.84 190.76-10.62Q194.53-10.40 198.52-10.22Q202.51-10.03 205.74-9.89Q208.96-9.74 210.28-9.74L210.28-9.74Q213.72-9.74 213.72-12.60L213.72-12.60L213.72-55.37L156.45-55.37L155.27-59.55L213.72-59.55L213.72-86.28L232.32-84.59Q237.67-90.09 242.91-96.79Q248.14-103.49 251.88-108.91L251.88-108.91L172.05-108.91ZM388.77-16.04L389.87-17.07Q399.76-18.16 405.83-16.63Q411.91-15.09 414.81-12.08Q417.70-9.08 417.92-5.68Q418.14-2.27 416.35 0.40Q414.55 3.08 411.25 3.99Q407.96 4.91 403.78 2.86L403.78 2.86Q402.32-2.56 397.96-7.84Q393.60-13.11 388.77-16.04L388.77-16.04ZM323.58-121.51L323.58-121.51L325.78-121.51Q329.59-111.18 328.38-103.82Q327.17-96.46 323.22-93.46L323.22-93.46Q321.39-91.99 318.75-91.81Q316.11-91.63 313.81-92.80Q311.50-93.97 310.47-96.61L310.47-96.61Q309.16-100.20 310.88-103.16Q312.60-106.13 315.75-107.89L315.75-107.89Q318.53-109.64 321.20-113.60Q323.88-117.55 323.58-121.51ZM386.28-120.48L386.28-120.48L388.48-120.48Q391.99-110.67 390.53-103.82Q389.06-96.97 384.89-94.34L384.89-94.34Q383.06-93.09 380.42-93.09Q377.78-93.09 375.48-94.41Q373.17-95.73 372.29-98.36L372.29-98.36Q371.04-102.10 372.91-105.03Q374.78-107.96 378.15-109.50L378.15-109.50Q380.86-110.96 383.61-114.15Q386.35-117.33 386.28-120.48ZM361.08-121.51L361.08-121.51L379.61-112.94Q379.10-111.69 377.64-110.96Q376.17-110.23 373.83-110.52L373.83-110.52Q364.67-104.08 355.52-100.20L355.52-100.20L353.54-101.37Q355.22-105.03 357.24-110.45Q359.25-115.87 361.08-121.51ZM422.39-121.36L422.39-121.36L442.53-112.65Q441.94-111.40 440.44-110.63Q438.94-109.86 436.52-110.08L436.52-110.08Q432.13-107.15 427.08-104.44Q422.02-101.73 417.63-99.90L417.63-99.90L415.65-101.07Q417.26-104.74 418.98-110.23Q420.70-115.72 422.39-121.36ZM395.73-128.25L395.73-128.25L420.92-126.27Q420.41-123.05 416.09-122.39L416.09-122.39Q415.50-115.65 414.48-109.50Q413.45-103.34 410.38-97.78L410.38-97.78Q420.78-98.29 426.53-95.76Q432.28-93.24 434.29-89.32Q436.30-85.40 435.31-81.59Q434.33-77.78 431.10-75.73L431.10-75.73L443.70-63.87Q442.68-62.92 441.43-62.48Q440.19-62.04 437.70-61.96L437.70-61.96Q434.33-59.84 429.68-57.39Q425.02-54.93 420.26-52.81L420.26-52.81L425.98-47.68Q425.32-45.26 421.80-45.26L421.80-45.26L386.72-45.26L386.72-24.61L400.49-24.61L409.79-36.47Q409.79-36.47 412.68-34.20Q415.58-31.93 419.57-28.75Q423.56-25.56 426.78-22.78L426.78-22.78Q426.12-20.43 422.53-20.43L422.53-20.43L386.72-20.43L386.72 6.88L416.82 6.88L426.64-6.30Q426.64-6.30 428.43-4.83Q430.22-3.37 433.01-1.06Q435.79 1.25 438.79 3.85Q441.80 6.45 444.29 8.72L444.29 8.72Q443.63 11.13 440.11 11.13L440.11 11.13L310.33 11.13L309.16 6.88L365.11 6.88L365.11-20.43L331.20-20.43L330.03-24.61L365.11-24.61L365.11-45.26L332.23-45.26L331.05-49.51L398.73-49.51L408.47-62.55L412.79-59.11L414.48-66.58L334.35-66.58Q334.79-58.52 331.97-52.92Q329.15-47.31 324.76-44.82L324.76-44.82Q321.97-43.21 318.57-43.36Q315.16-43.51 312.27-45.41Q309.38-47.31 308.28-50.83L308.28-50.83Q306.88-55.66 309.38-59.29Q311.87-62.92 316.04-64.82L316.04-64.82Q318.82-65.92 321.90-68.19Q324.98-70.46 327.21-73.43Q329.44-76.39 329.88-79.83L329.88-79.83L331.64-79.83Q333.25-75.07 333.91-70.83L333.91-70.83L413.53-70.83L419.82-77.12Q418.07-81.59 414.70-85.80Q411.33-90.01 407.23-93.16L407.23-93.16Q402.61-87.30 393.90-82.40Q385.18-77.49 370.39-73.68L370.39-73.68L369.14-75.44Q379.25-80.71 384.67-86.54Q390.09-92.36 392.40-98.91Q394.70-105.47 395.14-112.79Q395.58-120.12 395.73-128.25ZM335.08-128.25L335.08-128.25L359.25-126.27Q358.74-123.19 354.42-122.53L354.42-122.53Q353.98-116.24 353.06-110.49Q352.15-104.74 349.80-99.46L349.80-99.46Q358.30-98.95 363.21-96.50Q368.12-94.04 370.09-90.67Q372.07-87.30 371.63-83.97Q371.19-80.64 368.96-78.22Q366.72-75.81 363.24-75.29Q359.77-74.78 355.66-77.27L355.66-77.27Q354.86-81.67 352.37-86.10Q349.88-90.53 346.66-94.04L346.66-94.04Q342.11-87.74 333.33-82.40Q324.54-77.05 309.01-72.88L309.01-72.88L307.76-74.71Q318.09-79.98 323.69-85.95Q329.30-91.92 331.64-98.55Q333.98-105.18 334.50-112.61Q335.01-120.04 335.08-128.25Z"/>
    </svg>
        