<svg width="296" height="296" version="1.1" xmlns="http://www.w3.org/2000/svg" xmlns:xlink="http://www.w3.org/1999/xlink"><path d="M221.70 48.26L221.70 48.26Q221.70 52.40 214.60 55.36L214.60 55.36Q211.64 56.55 210.75 57.14L210.75 57.14Q191.22 68.68 178.78 73.12L178.78 73.12L177.60 71.64Q195.36 51.22 198.62 46.78L198.62 46.78L200.39 43.82Q200.39 37.31 202.17 36.42L202.17 36.42Q213.71 37.31 221.70 48.26ZM206.31 116.64L206.31 116.64L174.34 92.36L174.64 89.40L197.73 94.73Q208.68 98.58 211.94 109.53L211.94 109.53Q213.12 114.56 211.05 116.04L211.05 116.04L207.79 116.93Q207.20 116.93 206.31 116.64ZM179.67 35.83L179.67 35.83L175.23 56.55L175.23 58.32Q169.90 114.56 133.79 129.36L133.79 129.36L128.17 129.36L128.17 127.59Q159.84 102.72 159.84 55.66L159.84 55.66Q159.84 43.23 159.25 40.86Q158.66 38.49 153.03 31.68L153.03 31.68Q150.66 28.72 150.66 27.24L150.66 27.24Q150.66 23.99 155.10 23.40L155.10 23.40Q162.80 21.62 175.82 32.57L175.82 32.57Q177.90 34.05 179.67 35.83ZM149.78 86.74L149.78 87.04Q148.89 89.40 142.67 89.40L142.67 89.40Q133.50 81.71 128.17 72.24L128.17 72.24Q128.17 69.57 129.65 68.09L129.65 68.09Q142.97 70.16 148.89 78.75L148.89 78.75L149.78 86.74ZM135.57 58.03L135.57 58.03Q117.81 65.43 102.42 73.12L102.42 73.12Q101.53 81.71 99.16 92.36L99.16 92.36L113.96 96.51Q123.73 100.36 123.73 107.76L123.73 107.76Q123.73 111.01 121.36 111.90L121.36 111.90Q113.37 111.60 101.82 100.95L101.82 100.95L97.68 97.10Q89.98 121.37 69.56 133.51L69.56 133.51L65.42 135.88L59.79 135.88L60.38 134.40Q89.98 108.64 89.98 65.43L89.98 65.43Q89.98 45.30 79.92 34.05L79.92 34.05Q79.92 31.09 83.18 29.91L83.18 29.91Q97.98 31.09 105.38 38.20L105.38 38.20L107.45 40.86Q103.30 54.18 103.30 68.68L103.30 68.68L115.44 55.96Q119.88 50.33 121.06 44.71L121.06 44.71Q122.54 43.52 127.87 45.60L127.87 45.60Q135.27 52.11 135.57 58.03ZM77.26 91.48L74.59 93.55Q67.19 93.55 60.09 77.86L60.09 77.86Q55.65 68.98 55.65 63.95L55.65 63.95Q60.68 60.99 70.15 70.46L70.15 70.46Q80.81 80.52 78.74 88.52L78.74 88.52L77.26 91.48ZM247.46 153.04L247.75 153.34Q244.20 155.41 230.88 157.78L230.88 157.78Q227.92 158.37 226.14 158.96L226.14 158.96L203.35 167.55L198.32 167.55L198.32 165.18L212.53 144.16Q212.23 138.54 198.02 140.02L198.02 140.02L195.06 140.32Q145.93 142.68 94.72 152.75L94.72 152.75Q65.42 158.67 58.02 158.96L58.02 158.96Q54.46 159.26 51.21 159.26L51.21 159.26L41.44 184.42Q39.07 189.16 36.11 193.00L36.11 193.00Q28.71 193.00 26.34 181.76L26.34 181.76Q25.16 175.84 26.64 171.40L26.64 171.40Q40.85 156.30 40.85 141.50L40.85 141.50Q40.85 140.02 42.92 140.02L42.92 140.02Q47.36 140.61 50.02 146.53L50.02 146.53Q51.80 150.68 54.17 150.68L54.17 150.68L57.42 149.79L200.69 130.25Q216.97 128.18 220.82 129.36L220.82 129.36Q226.14 130.84 234.73 139.43L234.73 139.43L245.38 149.79L247.46 153.04ZM191.51 234.15L191.51 234.15Q183.52 236.22 174.34 227.64L174.34 227.64L168.42 222.31Q167.54 219.94 167.54 217.87L167.54 217.87Q172.86 214.91 183.52 218.46L183.52 218.46Q190.33 220.83 191.51 224.38L191.51 224.38Q194.18 227.04 192.99 231.19L192.99 231.19Q192.70 232.67 191.51 234.15ZM224.07 253.68L224.07 253.68Q224.07 256.35 220.22 258.12L220.22 258.12L162.80 256.64Q139.12 256.05 111.30 260.20L111.30 260.20Q102.12 261.38 92.35 263.16L92.35 263.16L68.08 267.60Q61.57 268.19 55.65 263.16L55.65 263.16Q52.98 261.08 51.21 258.42L51.21 258.42Q51.21 255.76 53.58 255.76L53.58 255.76L121.95 250.43L122.84 249.54L121.95 222.01Q105.97 222.90 102.71 222.31L102.71 222.31Q97.38 221.42 93.54 218.46L93.54 218.46Q93.54 216.09 95.31 215.50L95.31 215.50L121.95 211.65Q121.95 194.48 118.70 185.31L118.70 185.31Q100.34 186.20 96.20 185.60L96.20 185.60L89.10 183.24L84.36 179.98Q84.95 177.91 88.50 177.32Q92.06 176.72 121.95 172.58L121.95 172.58Q126.69 171.69 130.24 171.10L130.24 171.10L156.88 165.18Q158.36 165.18 159.54 164.88L159.54 164.88Q165.17 164.29 171.38 166.96L171.38 166.96Q174.05 168.14 176.12 169.92L176.12 169.92Q176.12 174.06 172.57 174.95L172.57 174.95L130.83 183.24L137.94 189.75L138.82 190.64Q138.82 195.67 137.64 206.62L137.64 206.62Q140.01 206.62 150.96 203.66L150.96 203.66Q160.73 201.00 167.54 208.69L167.54 208.69Q166.65 212.84 140.60 218.16L140.60 218.16Q138.23 218.46 137.34 218.76L137.34 218.76L134.98 248.36Q163.98 245.40 178.78 243.32L178.78 243.32L198.32 239.77L198.91 239.77Q207.79 239.18 217.86 247.47L217.86 247.47Q221.41 250.43 224.07 253.68Z" stroke="#000" fill="black" /></svg>